<svg width="24" height="24" viewBox="0 0 24 24" fill="none" xmlns="http://www.w3.org/2000/svg">
<path fill-rule="evenodd" clip-rule="evenodd" d="M12.0037 21.0077C10.2237 21.0077 8.48365 20.4798 7.00361 19.4909C5.52356 18.502 4.37001 17.0964 3.68882 15.4518C3.00763 13.8073 2.8294 11.9977 3.17667 10.2519C3.52394 8.50603 4.3811 6.90238 5.63978 5.64371C6.89845 4.38504 8.5021 3.52787 10.2479 3.1806C11.9938 2.83334 13.8034 3.01157 15.4479 3.69276C17.0924 4.37394 18.498 5.5275 19.487 7.00754C20.4759 8.48758 21.0037 10.2276 21.0037 12.0077C21.0037 14.3946 20.0555 16.6838 18.3677 18.3716C16.6799 20.0595 14.3907 21.0077 12.0037 21.0077ZM17.0287 7.7257C16.951 7.64877 16.8574 7.58977 16.7544 7.55281C16.6515 7.51586 16.5417 7.50186 16.4328 7.51178C16.3239 7.5217 16.2185 7.5553 16.1239 7.61024C16.0293 7.66518 15.9479 7.74013 15.8854 7.82983L11.0689 14.7261L8.86604 11.5719C8.80347 11.4822 8.72206 11.4073 8.62749 11.3523C8.53293 11.2974 8.42749 11.2638 8.31858 11.2539C8.20966 11.2439 8.09989 11.2579 7.99695 11.2949C7.89402 11.3319 7.8004 11.3909 7.72266 11.4678C7.59625 11.6007 7.52056 11.7737 7.50882 11.9568C7.49709 12.1398 7.55005 12.3211 7.65846 12.469L10.1426 16.0259C10.2468 16.175 10.3854 16.2967 10.5467 16.3807C10.708 16.4647 10.8871 16.5086 11.069 16.5086C11.2508 16.5086 11.43 16.4647 11.5913 16.3807C11.7526 16.2967 11.8912 16.175 11.9954 16.0259L17.093 8.72676C17.2014 8.57884 17.2543 8.39754 17.2425 8.21456C17.2308 8.03158 17.1551 7.85855 17.0287 7.7257Z" fill="#04A777"/>
</svg>