<svg width="315" height="413" viewBox="0 0 315 413" fill="none" xmlns="http://www.w3.org/2000/svg">
<path d="M266.201 81.2279V36.2988C266.201 16.2127 249.989 0 229.902 0H84.7065C64.6196 0 48.4077 16.2127 48.4077 36.2988V81.2279L157.304 105.427L266.201 81.2279ZM290.4 153.1C290.4 148.261 287.496 143.905 283.139 141.968C278.785 140.031 273.462 141.001 270.071 144.147C267.411 146.809 266.201 146.809 266.201 146.809C264.505 146.809 259.666 141.486 257.005 138.58C250.47 131.563 242.486 122.609 229.902 122.609C217.317 122.609 209.333 131.563 202.799 138.58C200.137 141.486 195.299 146.809 193.603 146.809C191.907 146.809 187.068 141.486 184.407 138.58C177.873 131.563 169.889 122.609 157.304 122.609C144.72 122.609 136.736 131.563 130.201 138.58C127.539 141.486 122.701 146.809 121.005 146.809C119.31 146.809 114.471 141.486 111.81 138.58C105.275 131.563 97.2909 122.609 84.7065 122.609C72.1221 122.609 64.138 131.563 57.6034 138.58C54.9415 141.486 50.1033 146.809 48.4077 146.809C48.4077 146.809 47.1969 146.809 44.5383 144.147C40.9052 141.001 35.8241 140.032 31.4699 141.968C27.1124 143.905 24.2085 148.261 24.2085 153.1V255.705V304.104V352.502C24.2085 385.897 51.3116 413 84.7065 413H229.902C263.297 413 290 385.895 290 352.5V323V231L290.4 153.1Z" fill="url(#paint0_linear)"/>
<path d="M24 231H290V323H24V231Z" fill="white"/>
<path d="M24 231H290V323H24V231Z" fill="url(#paint1_linear)" fill-opacity="0.7"/>
<path d="M310.968 126.24L266.201 81.2279H48.4077L3.63994 126.239C0.00924781 129.626 -0.959527 134.709 0.978024 139.307C2.91315 143.905 7.26982 146.809 12.1089 146.809C14.0464 146.809 18.8854 152.132 21.5466 155.037C28.4861 162.749 35.9927 171.008 48.4077 171.008C60.9921 171.008 68.9762 162.054 75.5108 155.037C78.1727 152.132 83.011 146.809 84.7065 146.809C86.4021 146.809 91.2411 152.132 93.9022 155.037C100.437 162.054 108.421 171.008 121.005 171.008C133.59 171.008 141.574 162.054 148.108 155.037C150.77 152.132 155.609 146.809 157.304 146.809C159 146.809 163.839 152.132 166.5 155.037C173.034 162.054 181.019 171.008 193.603 171.008C206.187 171.008 214.172 162.054 220.706 155.037C223.368 152.132 228.206 146.809 229.902 146.809C231.597 146.809 236.436 152.132 239.098 155.037C245.632 162.054 253.616 171.008 266.201 171.008C277.884 171.008 285.26 163.707 293.062 155.037C295.724 152.132 300.562 146.809 302.5 146.809C307.339 146.809 311.695 143.905 313.63 139.307C315.568 134.709 314.599 129.626 310.968 126.24Z" fill="white"/>
<path d="M310.968 126.24L266.201 81.2279H48.4077L3.63994 126.239C0.00924781 129.626 -0.959527 134.709 0.978024 139.307C2.91315 143.905 7.26982 146.809 12.1089 146.809C14.0464 146.809 18.8854 152.132 21.5466 155.037C28.4861 162.749 35.9927 171.008 48.4077 171.008C60.9921 171.008 68.9762 162.054 75.5108 155.037C78.1727 152.132 83.011 146.809 84.7065 146.809C86.4021 146.809 91.2411 152.132 93.9022 155.037C100.437 162.054 108.421 171.008 121.005 171.008C133.59 171.008 141.574 162.054 148.108 155.037C150.77 152.132 155.609 146.809 157.304 146.809C159 146.809 163.839 152.132 166.5 155.037C173.034 162.054 181.019 171.008 193.603 171.008C206.187 171.008 214.172 162.054 220.706 155.037C223.368 152.132 228.206 146.809 229.902 146.809C231.597 146.809 236.436 152.132 239.098 155.037C245.632 162.054 253.616 171.008 266.201 171.008C277.884 171.008 285.26 163.707 293.062 155.037C295.724 152.132 300.562 146.809 302.5 146.809C307.339 146.809 311.695 143.905 313.63 139.307C315.568 134.709 314.599 129.626 310.968 126.24Z" fill="url(#paint2_linear)" fill-opacity="0.9"/>
<defs>
<linearGradient id="paint0_linear" x1="157.304" y1="413" x2="157.304" y2="0" gradientUnits="userSpaceOnUse">
<stop stop-color="#00B59C"/>
<stop offset="1" stop-color="#9CFFAC"/>
</linearGradient>
<linearGradient id="paint1_linear" x1="157" y1="323" x2="157" y2="231" gradientUnits="userSpaceOnUse">
<stop stop-color="#C3FFE8"/>
<stop offset="0.9973" stop-color="#F0FFF4"/>
</linearGradient>
<linearGradient id="paint2_linear" x1="157.304" y1="171.008" x2="157.304" y2="81.2279" gradientUnits="userSpaceOnUse">
<stop stop-color="#00B59C"/>
<stop offset="1" stop-color="#9CFFAC"/>
</linearGradient>
</defs>
</svg>
