<svg width="132" height="29" viewBox="0 0 132 29" fill="none" xmlns="http://www.w3.org/2000/svg">
<path d="M23.9545 5.54545V23H27.5341V11.5966H27.679L32.196 22.9148H34.6335L39.1506 11.6392H39.2955V23H42.875V5.54545H38.3239L33.517 17.2727H33.3125L28.5057 5.54545H23.9545ZM49.5803 23.2472C51.5149 23.2472 52.7678 22.4034 53.407 21.1847H53.5092V23H56.9524V14.1705C56.9524 11.0511 54.3104 9.73864 51.3956 9.73864C48.2592 9.73864 46.1967 11.2386 45.6939 13.625L49.0518 13.8977C49.299 13.0284 50.0746 12.3892 51.3786 12.3892C52.6143 12.3892 53.3217 13.0114 53.3217 14.0852V14.1364C53.3217 14.9801 52.4268 15.0909 50.1513 15.3125C47.5604 15.5511 45.2337 16.4205 45.2337 19.3438C45.2337 21.9347 47.0831 23.2472 49.5803 23.2472ZM50.62 20.7415C49.5036 20.7415 48.7024 20.2216 48.7024 19.2244C48.7024 18.2017 49.5462 17.6989 50.8246 17.5199C51.6172 17.4091 52.9126 17.2216 53.3473 16.9318V18.321C53.3473 19.6932 52.2138 20.7415 50.62 20.7415ZM65.6669 28.1818C69.4084 28.1818 72.0675 26.4773 72.0675 23.1278V9.90909H68.4624V12.108H68.326C67.8402 11.0426 66.7749 9.73864 64.5845 9.73864C61.7124 9.73864 59.2834 11.9716 59.2834 16.429C59.2834 20.7841 61.6442 22.8125 64.593 22.8125C66.6811 22.8125 67.8487 21.7642 68.326 20.6818H68.4794V23.0767C68.4794 24.875 67.3288 25.5739 65.7521 25.5739C64.1499 25.5739 63.3402 24.875 63.0419 24.0824L59.6839 24.5341C60.1186 26.5966 62.1385 28.1818 65.6669 28.1818ZM65.7436 20.0852C63.9624 20.0852 62.9908 18.6705 62.9908 16.4119C62.9908 14.1875 63.9453 12.6278 65.7436 12.6278C67.5078 12.6278 68.4964 14.1193 68.4964 16.4119C68.4964 18.7216 67.4908 20.0852 65.7436 20.0852ZM74.9567 23H78.5874V9.90909H74.9567V23ZM76.7805 8.22159C77.8629 8.22159 78.7493 7.39489 78.7493 6.38068C78.7493 5.375 77.8629 4.54829 76.7805 4.54829C75.7067 4.54829 74.8203 5.375 74.8203 6.38068C74.8203 7.39489 75.7067 8.22159 76.7805 8.22159ZM87.4105 23.2557C90.8963 23.2557 93.0866 21.2102 93.2571 18.2017H89.831C89.6179 19.5994 88.6974 20.3835 87.4531 20.3835C85.7571 20.3835 84.6577 18.9602 84.6577 16.4545C84.6577 13.983 85.7656 12.5682 87.4531 12.5682C88.7827 12.5682 89.6349 13.446 89.831 14.75H93.2571C93.1037 11.7244 90.8111 9.73864 87.3935 9.73864C83.4219 9.73864 80.9673 12.4915 80.9673 16.5057C80.9673 20.4858 83.3793 23.2557 87.4105 23.2557ZM102.638 5.54545V17.7159C102.63 19.3949 101.88 20.2812 100.516 20.2812C99.2294 20.2812 98.3942 19.4801 98.3686 18.0909H94.6953C94.6783 21.5767 97.1669 23.2386 100.329 23.2386C103.866 23.2386 106.278 21.0994 106.286 17.7159V5.54545H102.638ZM113.002 23.2472C114.937 23.2472 116.19 22.4034 116.829 21.1847H116.931V23H120.374V14.1705C120.374 11.0511 117.732 9.73864 114.817 9.73864C111.681 9.73864 109.619 11.2386 109.116 13.625L112.474 13.8977C112.721 13.0284 113.496 12.3892 114.8 12.3892C116.036 12.3892 116.744 13.0114 116.744 14.0852V14.1364C116.744 14.9801 115.849 15.0909 113.573 15.3125C110.982 15.5511 108.656 16.4205 108.656 19.3438C108.656 21.9347 110.505 23.2472 113.002 23.2472ZM114.042 20.7415C112.925 20.7415 112.124 20.2216 112.124 19.2244C112.124 18.2017 112.968 17.6989 114.246 17.5199C115.039 17.4091 116.335 17.2216 116.769 16.9318V18.321C116.769 19.6932 115.636 20.7415 114.042 20.7415ZM123.191 23H126.822V15.5938C126.822 13.983 127.998 12.875 129.6 12.875C130.103 12.875 130.793 12.9602 131.134 13.071V9.84943C130.81 9.77273 130.359 9.72159 129.992 9.72159C128.526 9.72159 127.325 10.5739 126.847 12.1932H126.711V9.90909H123.191V23Z" fill="black"/>
<path fill-rule="evenodd" clip-rule="evenodd" d="M0 23.4037V10.7107C9.49189e-07 9.81724 0.354939 8.96034 0.986733 8.32853L2.38225 6.93301C3.01406 6.30122 3.87096 5.94628 4.76446 5.94628H13.765C14.6585 5.94628 15.5154 6.30122 16.1472 6.93301L17.5426 8.32853C17.8555 8.64136 18.1037 9.01275 18.273 9.42149C18.4423 9.83023 18.5294 10.2683 18.5294 10.7107V23.4037C18.5294 24.2973 18.1745 25.1542 17.5427 25.786C16.9109 26.4178 16.0539 26.7727 15.1604 26.7727H3.36898C2.47547 26.7727 1.61856 26.4178 0.986752 25.786C0.354945 25.1542 0 24.2973 0 23.4037ZM15.371 5.10403H3.15842C2.99089 5.10403 2.83022 5.03748 2.71175 4.91902C2.59329 4.80056 2.52674 4.63988 2.52674 4.47235V1.63168C2.52674 1.46415 2.59329 1.30348 2.71175 1.18502C2.83022 1.06655 2.99089 1 3.15842 1H15.371C15.5385 1 15.6992 1.06655 15.8177 1.18502C15.9361 1.30348 16.0027 1.46415 16.0027 1.63168V4.47235C16.0027 4.63988 15.9361 4.80056 15.8177 4.91902C15.6992 5.03748 15.5385 5.10403 15.371 5.10403ZM11.1391 17.6427L11.9566 20.1935C11.9781 20.2556 11.9788 20.3227 11.9587 20.3853C11.9386 20.4478 11.8988 20.5024 11.8449 20.5413C11.791 20.5801 11.726 20.6011 11.6591 20.6013C11.5922 20.6015 11.527 20.5808 11.473 20.5422L9.3064 18.9414L7.14419 20.5413C7.08999 20.5796 7.02477 20.6 6.95797 20.5995C6.89117 20.5991 6.82624 20.5778 6.77257 20.5389C6.7189 20.4999 6.67926 20.4452 6.65939 20.3826C6.63952 20.3201 6.64044 20.253 6.66202 20.191L7.47361 17.6464L5.27848 16.1011C5.22396 16.0628 5.18318 16.0086 5.16193 15.9462C5.14069 15.8838 5.14007 15.8164 5.16016 15.7537C5.18026 15.6909 5.22004 15.636 5.27384 15.5967C5.32765 15.5574 5.39273 15.5358 5.45982 15.5349H8.16402L9.00784 12.9762C9.02765 12.9138 9.06731 12.8592 9.12102 12.8204C9.17473 12.7817 9.23968 12.7607 9.30638 12.7607C9.37307 12.7607 9.43802 12.7817 9.49173 12.8204C9.54545 12.8592 9.58511 12.9138 9.60492 12.9762L10.4487 15.5349H13.1618C13.2289 15.5358 13.2941 15.5575 13.3479 15.5968C13.4017 15.6361 13.4415 15.6911 13.4615 15.7538C13.4816 15.8166 13.4809 15.884 13.4596 15.9464C13.4383 16.0088 13.3975 16.063 13.3429 16.1013L11.1391 17.6427Z" fill="black"/>
</svg>
